<?xml version="1.0" encoding="utf-8"?>
<!-- Generator: Adobe Illustrator 26.0.3, SVG Export Plug-In . SVG Version: 6.00 Build 0)  -->
<svg version="1.1" id="Слой_1" xmlns="http://www.w3.org/2000/svg" xmlns:xlink="http://www.w3.org/1999/xlink" x="0px" y="0px"
	 viewBox="0 0 354 122" enable-background="new 0 0 354 122" xml:space="preserve">
	<path filter="drop-shadow(0 0 4px black)" d="M220.6,2c3,0,5.4,2.4,5.4,5.4v39.2c0,3-2.4,5.4-5.4,5.4h-87.2c-3,0-5.4-2.4-5.4-5.4V7.4c0-3,2.4-5.4,5.4-5.4H220.6
		 M220.6,0h-87.2c-4.1,0-7.4,3.3-7.4,7.4v39.2c0,4.1,3.3,7.4,7.4,7.4h87.2c4.1,0,7.4-3.3,7.4-7.4V7.4C228,3.3,224.7,0,220.6,0
		L220.6,0z"/>
	<path filter="drop-shadow(0 0 4px black)" d="M220.6,70c3,0,5.4,2.4,5.4,5.4v39.2c0,3-2.4,5.4-5.4,5.4h-87.2c-3,0-5.4-2.4-5.4-5.4V75.4c0-3,2.4-5.4,5.4-5.4H220.6
		 M220.6,68h-87.2c-4.1,0-7.4,3.3-7.4,7.4v39.2c0,4.1,3.3,7.4,7.4,7.4h87.2c4.1,0,7.4-3.3,7.4-7.4V75.4C228,71.3,224.7,68,220.6,68
		L220.6,68z"/>
	<path filter="drop-shadow(0 0 4px black)" d="M94.6,2c3,0,5.4,2.4,5.4,5.4v107.2c0,3-2.4,5.4-5.4,5.4H7.4c-3,0-5.4-2.4-5.4-5.4V7.4C2,4.4,4.4,2,7.4,2H94.6 M94.6,0H7.4
		C3.3,0,0,3.3,0,7.4v107.2c0,4.1,3.3,7.4,7.4,7.4h87.2c4.1,0,7.4-3.3,7.4-7.4V7.4C102,3.3,98.7,0,94.6,0L94.6,0z"/>
<polyline fill="none" stroke="#000000" stroke-width="3" stroke-linecap="round" stroke-linejoin="round" stroke-miterlimit="10" points="
	69,92.8 37.2,61 69,29.2 "/>
<polyline fill="none" stroke="#000000" stroke-width="3" stroke-linecap="round" stroke-linejoin="round" stroke-miterlimit="10" points="
	155.1,35.9 177,14 198.9,35.9 "/>
<polyline fill="none" stroke="#000000" stroke-width="3" stroke-linecap="round" stroke-linejoin="round" stroke-miterlimit="10" points="
	198.9,87.9 177,109.8 155.1,87.9 "/>
<path fill="none" stroke="#000000" stroke-linecap="round" stroke-linejoin="round" stroke-miterlimit="10" d="M56,92.8"/>
<path fill="none" stroke="#000000" stroke-linecap="round" stroke-linejoin="round" stroke-miterlimit="10" d="M56,29.2"/>
	<path filter="drop-shadow(0 0 4px black)" d="M346.6,2c3,0,5.4,2.4,5.4,5.4v107.2c0,3-2.4,5.4-5.4,5.4h-87.2c-3,0-5.4-2.4-5.4-5.4V7.4c0-3,2.4-5.4,5.4-5.4H346.6
		 M346.6,0h-87.2c-4.1,0-7.4,3.3-7.4,7.4v107.2c0,4.1,3.3,7.4,7.4,7.4h87.2c4.1,0,7.4-3.3,7.4-7.4V7.4C354,3.3,350.7,0,346.6,0
		L346.6,0z"/>
<polyline  fill="none" stroke="#000000" stroke-width="3" stroke-linecap="round" stroke-linejoin="round" stroke-miterlimit="10" points="
	285,92.8 316.8,61 285,29.2 "/>
<path fill="none" stroke="#000000" stroke-linecap="round" stroke-linejoin="round" stroke-miterlimit="10" d="M298,92.8"/>
<path fill="none" stroke="#000000" stroke-linecap="round" stroke-linejoin="round" stroke-miterlimit="10" d="M298,29.2"/>
</svg>
