<?xml version="1.0" encoding="utf-8"?>
<!-- Generator: Adobe Illustrator 26.0.3, SVG Export Plug-In . SVG Version: 6.00 Build 0)  -->
<svg version="1.1" id="Слой_1" xmlns="http://www.w3.org/2000/svg" xmlns:xlink="http://www.w3.org/1999/xlink" x="0px" y="0px"
	 viewBox="0 0 486 54" enable-background="new 0 0 486 54" xml:space="preserve">
	<path filter="drop-shadow(0 0 4px black)" d="M478.6,2c3,0,5.4,2.4,5.4,5.4v39.2c0,3-2.4,5.4-5.4,5.4H7.4c-3,0-5.4-2.4-5.4-5.4V7.4C2,4.4,4.4,2,7.4,2H478.6 M478.6,0
		H7.4C3.3,0,0,3.3,0,7.4v39.2C0,50.7,3.3,54,7.4,54h471.2c4.1,0,7.4-3.3,7.4-7.4V7.4C486,3.3,482.7,0,478.6,0L478.6,0z"/>
<text transform="matrix(1 0 0 1 195.656 34.9253)"  font-size="27px">ПРОБЕЛ</text>
</svg>
